<svg width="95" height="97" viewBox="0 0 95 97" fill="none" xmlns="http://www.w3.org/2000/svg">
<path d="M47.5 64.6667C54.0584 64.6667 59.375 59.2381 59.375 52.5417C59.375 45.8452 54.0584 40.4167 47.5 40.4167C40.9416 40.4167 35.625 45.8452 35.625 52.5417C35.625 59.2381 40.9416 64.6667 47.5 64.6667Z" stroke="black" stroke-width="3.75"/>
<path d="M7.9165 54.0112C7.9165 41.6267 7.9165 35.4341 10.8814 30.9858C12.1649 29.0601 13.8142 27.4067 15.7352 26.12C18.5864 24.2101 22.1559 23.5275 27.6211 23.2835C30.229 23.2835 32.4745 21.3023 32.9859 18.7386C33.7531 14.8931 37.1213 12.125 41.0331 12.125H53.9666C57.8782 12.125 61.2463 14.8931 62.0139 18.7386C62.5253 21.3023 64.7704 23.2835 67.3786 23.2835C72.8439 23.5275 76.4131 24.2101 79.2647 26.12C81.1852 27.4067 82.8347 29.0601 84.1184 30.9858C87.0832 35.4341 87.0832 41.6267 87.0832 54.0112C87.0832 66.3961 87.0832 72.5887 84.1184 77.037C82.8347 78.9624 81.1852 80.6159 79.2647 81.9028C74.8274 84.875 68.6504 84.875 56.296 84.875H38.7035C26.3495 84.875 20.1725 84.875 15.7352 81.9028C13.8142 80.6159 12.1649 78.9624 10.8814 77.037C10.044 75.7804 9.44307 74.3849 9.01189 72.75" stroke="black" stroke-width="3.75" stroke-linecap="round"/>
<path d="M75.2083 40.4167H71.25" stroke="black" stroke-width="3.75" stroke-linecap="round"/>
</svg>
